<mxfile host="app.diagrams.net" modified="2024-06-28T21:20:58.239Z" agent="Mozilla/5.0 (Windows NT 10.0; Win64; x64) AppleWebKit/537.36 (KHTML, like Gecko) Chrome/126.0.0.0 Safari/537.36" version="24.6.4" etag="uTvnVWzvHr3E3N8grY-R" type="github">
  <diagram name="PÃ¡gina-1" id="A-It1WTfz-cBRAKEa0Qf">
    <mxGraphModel>
      <root>
        <mxCell id="0" />
        <mxCell id="1" parent="0" />
      </root>
    </mxGraphModel>
  </diagram>
</mxfile>
